<svg xmlns="http://www.w3.org/2000/svg" width="40" height="40" fill="none"><g fill="#E7C186" clip-path="url(#a)"><path d="m18.734.069.28-.005c2.146-.029 4.125.027 6.198.63l.263.075c5.066 1.452 9.368 4.99 11.96 9.553a20.083 20.083 0 0 1 1.916 4.934c.036.15.074.299.114.448.365 1.376.378 2.758.382 4.172a17.956 17.956 0 0 1-.608 5.068l-.077.288c-1.024 3.726-3.19 7.343-6.207 9.805l-.307.261c-3.94 3.308-9.19 4.864-14.301 4.48-.66-.065-1.314-.16-1.968-.274l-.23-.04c-3.186-.556-6.378-1.974-8.802-4.13l-.234-.2c-1.199-1.05-2.324-2.165-3.24-3.471l-.124-.176c-.301-.43-.588-.869-.869-1.313l-.114-.18C1.654 28.227.917 26.16.498 24.12l-.058-.277C-.591 18.732.422 13.328 3.297 8.97c.537-.785 1.138-1.509 1.767-2.22l.221-.258C8.555 2.739 13.73.148 18.734.069ZM7.183 8.687c-2.519 2.764-4.09 6.638-4.204 10.37l-.007.194c-.158 4.339 1.3 8.77 4.27 11.983.15.16.301.318.454.475.141.146.28.293.42.44 1.82 1.885 4.115 3.133 6.575 3.98l.324.114c4.016 1.336 8.715.843 12.47-1.034.989-.511 1.92-1.063 2.79-1.76l.164-.131a17.847 17.847 0 0 0 4.203-4.832l.2-.33c2.195-3.781 2.625-8.465 1.534-12.653a16.824 16.824 0 0 0-2.627-5.478l-.115-.16a16.854 16.854 0 0 0-4.154-4.009l-.192-.132C22.209.903 12.88 2.66 7.183 8.687Z"/><path d="M17.074 6.55c.431.05.59.157.862.49.314.37.637.715.986 1.052l.247.24c.165.16.332.319.5.477l.231.226.211.2c.139.194.139.194.13.371-.13.316-.352.522-.59.757l-.158.159-.518.515-.358.36-.753.75c-.323.32-.644.641-.966.963a397.6 397.6 0 0 1-1.594 1.59l-.15.15c-.34.336-.34.336-.562.336l-.08.192c-.118.205-.118.205-.416.304-.069.131-.135.264-.199.397a19.8 19.8 0 0 1-.41.466 6.688 6.688 0 0 0-.923 1.482l-.1.208c-.676 1.497-.711 3.457-.173 5.002l.117.287.103.258c.684 1.533 1.963 2.8 3.47 3.513 1.832.65 3.87.767 5.67-.053l.2-.096.179-.083c1.226-.632 2.233-1.766 3.195-2.735l.358-.358.742-.744a529.945 529.945 0 0 1 1.683-1.686l.35-.35.486-.49.28-.28c.186-.196.349-.386.514-.597.24-.27.24-.27.45-.372.368.006.614.36.858.609l.193.191c.134.134.268.268.4.403a204.842 204.842 0 0 1 1.007 1.006l.19.186c.17.176.17.176.417.486-.028.315-.143.479-.362.698-.083.086-.083.086-.169.172l-.186.185-.196.198c-.214.216-.43.431-.645.646l-.45.452-.948.948a351.3 351.3 0 0 0-1.204 1.207c-.31.312-.621.623-.933.934l-.443.445c-1.078 1.086-2.19 2.12-3.59 2.782l-.198.096c-.678.32-1.369.563-2.09.766l-.323.096c-2.751.689-5.924.197-8.365-1.229-2.83-1.815-4.608-4.288-5.364-7.548-.157-.764-.18-1.515-.18-2.293l.001-.198c.004-1.09.098-2.084.434-3.12l.065-.206c.92-2.855 3.057-4.822 5.127-6.891l.706-.709.678-.68.256-.258.235-.234.207-.207c.17-.146.17-.146.369-.146V8.04c.149-.144.149-.144.353-.31a9.247 9.247 0 0 0 1.136-1.18Z"/><path d="M30.245 19.51c.323.204.584.467.854.734l.18.177.372.37c.19.19.383.376.575.564l.362.36c.058.055.116.111.175.17.16.16.16.16.388.447-.03.315-.144.479-.362.699l-.17.172-.186.184-.195.198-.646.647-.45.451c-.315.317-.631.633-.948.948-.402.401-.803.804-1.203 1.207-.31.312-.622.624-.933.934l-.443.445c-1.078 1.086-2.19 2.12-3.59 2.782l-.198.096c-.678.32-1.37.563-2.09.766l-.324.096c-2.75.689-5.923.197-8.364-1.229a16.124 16.124 0 0 1-2.33-1.845l.177-.026c.279-.092.377-.218.561-.445.271-.324.538-.633.85-.918h.198v-.199a9.26 9.26 0 0 1 .34-.346c.115-.11.227-.223.337-.337l.186-.191.175-.182c.153-.135.153-.135.352-.135l.1-.198.131.127c1.425 1.318 3.112 1.801 5.027 1.779a6.707 6.707 0 0 0 2.695-.666l.18-.083c1.226-.632 2.233-1.766 3.195-2.735l.358-.358.741-.744a565.327 565.327 0 0 1 1.683-1.686 576.811 576.811 0 0 1 .837-.84l.279-.28c.186-.195.357-.389.527-.597.336-.398.336-.398.597-.313Z"/><path d="M26.352 3.95c.433.208.888.36 1.341.517v.297l.199.1a3.887 3.887 0 0 1-.775-.262c-4.297-1.91-9.03-2.065-13.434-.377-2.105.842-3.89 2.07-5.543 3.616l-.248.232C4.997 10.868 3.2 15.044 3.078 19.057l-.008.194c-.158 4.343 1.304 8.775 4.276 11.99.15.159.301.316.453.473.132.137.263.275.393.414 1.786 1.854 4.085 3.071 6.499 3.902l.323.114c3.522 1.171 7.513.895 10.95-.392l.243-.09.216-.082c.178-.046.178-.046.377.053-.371.238-.74.4-1.154.552-.345.127-.624.236-.93.44-.187.047-.187.047-.397.078l-.237.036-.247.035-.236.035c-.166.025-.331.05-.497.073-.19.029-.38.06-.57.093-.839.144-1.662.187-2.512.184h-.21c-2.112-.01-4.026-.428-6.013-1.13l-.229-.079a64.587 64.587 0 0 1-1.16-.416v-.199l-.236-.062c-.634-.24-1.197-.613-1.743-1.011-.287-.228-.287-.228-.602-.316v-.199H9.63v-.199l-.205-.068c-.637-.284-1.053-.682-1.483-1.222l-.198-.1v-.198l-.298-.099a9.889 9.889 0 0 1-.453-.527l-.236-.29a3.62 3.62 0 0 1-.403-.672 5.966 5.966 0 0 0-.49-.465c-.289-.324-.602-.773-.602-1.222h-.198v-.298h-.298v-.496l-.298-.1c-.105-.245-.105-.245-.198-.558a8.855 8.855 0 0 0-.342-.964c-.928-2.18-1.182-4.468-1.19-6.815l-.002-.265c-.001-.253 0-.506.002-.758v-.228a3.07 3.07 0 0 1 .27-1.247c.123-.314.167-.643.22-.976a6.94 6.94 0 0 1 .446-1.588c.068-.198.134-.396.199-.595h.198l.038-.36c.044-.362.132-.687.26-1.03h.199v-.198h.198l.03-.266c.073-.348.178-.55.373-.845l.19-.285c.407-.59.815-1.18 1.28-1.725.212-.234.212-.234.31-.459.1-.192.1-.192.36-.447.271-.22.271-.22.236-.54l.354-.16c.384-.19.68-.423.992-.715.143-.117.143-.117.342-.117v-.198h.297v-.397l.208-.075c.334-.143.627-.322.934-.515l.645-.403.276-.174c.22-.124.22-.124.419-.124l.1-.297c.264-.114.52-.21.793-.298l.236-.08.657-.218.255-.087c.133-.046.267-.09.4-.134.195-.063.389-.128.582-.194 3.431-1.153 8.025-1.14 11.318.494Z"/><path d="M17.071 6.55c.432.05.59.157.863.49.313.37.637.715.986 1.052l.247.24c.165.16.332.319.5.477l.23.226.212.2c.138.194.138.194.129.371-.129.316-.351.522-.59.757l-.157.159-.518.515-.358.36-.753.75c-.323.32-.644.641-.966.963a397.6 397.6 0 0 1-1.595 1.59l-.149.15c-.34.336-.34.336-.562.336l-.08.192c-.118.205-.118.205-.416.304-.07.131-.135.264-.199.397a19.8 19.8 0 0 1-.41.466 6.689 6.689 0 0 0-.923 1.482l-.1.208c-.677 1.497-.712 3.457-.173 5.002l.117.287.102.258c.267.597.65 1.091 1.068 1.59.114.14.217.286.32.434l-.1.298-.199-.1v-.198a8.412 8.412 0 0 0-.694.199c-.062-.186-.062-.186-.1-.397l.199-.199c-.128-.297-.128-.297-.298-.595l-.298-.1c-.096-.221-.096-.221-.177-.513l-.09-.318-.092-.335-.094-.33c-.218-.775-.36-1.464-.36-2.269v-.251c.017-1.735.017-1.735.317-2.336h.199v-.496l.198-.1c.073-.229.14-.46.199-.694h.198a17.519 17.519 0 0 1 .298-.993l.198.199.1-.199.297-.099.1-.298h.198v-.198l.186-.075c.25-.146.287-.267.41-.52l.298-.1c.03-.066.06-.131.093-.198l.105-.199c.132-.036.264-.07.397-.1l.1-.297h.198v-.199l.198-.099.093-.248.106-.248.298-.1.248-.303.248-.292h.298l.099-.298c.166-.16.166-.16.372-.328a4.84 4.84 0 0 0 .707-.708l.211-.254h.199l.099-.298c.158-.135.158-.135.347-.273.293-.24.343-.303.447-.688.017-.33.017-.33-.1-.627-.195-.113-.396-.194-.604-.282-.232-.14-.28-.267-.388-.512l-.21-.21-.187-.187v-.198l-.298-.1c-.183-.186-.334-.39-.496-.595-.489.199-.794.589-1.148.968-.229.211-.335.288-.639.322V8.04c.15-.144.15-.144.354-.31a9.247 9.247 0 0 0 1.135-1.18Zm13.174 12.96c.323.204.583.467.854.734l.18.177.372.37c.19.19.382.376.575.564l.362.36.175.17c.159.16.159.16.387.447-.03.319-.147.483-.369.705l-.174.175-.191.19-.201.202-.661.659-.459.458-.961.96c-.412.409-.823.82-1.233 1.23a703.113 703.113 0 0 1-2.038 2.034l-.19.19-.176.174-.151.151c-.144.118-.144.118-.442.217a2.07 2.07 0 0 1 .596-.794h.198v-.198c.428-.473.428-.473.794-.596l.2-.397c.19-.184.19-.184.415-.372.37-.319.69-.65 1.005-1.023.27-.312.567-.598.862-.887l.496-.497.993-.992.252-.254c.154-.153.31-.304.47-.45l.208-.196.214-.196c.165-.18.165-.18.148-.387-.143-.288-.34-.472-.573-.695l-.259-.25-.262-.252a13.35 13.35 0 0 1-.672-.697c-.37-.415-.37-.415-.91-.538l-.304.044v.198c-.141.096-.283.19-.427.282-.276.189-.505.426-.738.663l-.162.162-.525.527-.367.369-.965.97-.979.982a1395.668 1395.668 0 0 0-1.99 2l-.267.27c-.662.655-.662.655-1.123.723v.199c-1.121.584-2.246.722-3.492.738l-.3.007a4.23 4.23 0 0 1-1.723-.355 3.079 3.079 0 0 0-.695-.173c-.681-.135-1.26-.616-1.73-1.11l-.217-.218-.18-.18.099-.198.132.127c1.424 1.318 3.112 1.801 5.026 1.779a6.707 6.707 0 0 0 2.695-.666l.18-.083c1.226-.632 2.233-1.766 3.195-2.735l.358-.358.742-.744a565.327 565.327 0 0 1 1.683-1.686 576.811 576.811 0 0 1 .836-.84l.28-.28c.185-.195.357-.389.527-.597.335-.398.335-.398.597-.313ZM.1 20.744h.198l.021.209c.24 2.322.625 4.492 1.568 6.64l.388.936c.065.153.133.305.207.454h.596v.297H2.78v.298h.198l.11.23c.469 1.12.469 1.12 1.28 1.954.072.196.139.395.198.595h.199c.298.344.298.344.298.596l.297.1c.154.158.154.158.317.359.312.37.648.68 1.023.986l.15.143v.198h.198v.199c.053.024.106.05.161.074.775.408.775.408.93.72l.298.1.1.198c.196.103.395.201.595.297.3.163.597.33.893.497v.198l.267.081c.329.118.329.118.571.267.306.179.607.26.95.347v.199l.213.036.276.05.276.05.227.062.099.199c.237.09.471.172.713.248.066.02.131.042.199.064l.392.124c.167.054.332.112.498.17.277.087.527.127.816.15a995.255 995.255 0 0 0 .459.038v.198l.322-.006c.302.005.487.035.77.105.904.107 1.812.115 2.721.113h.638c1.152.001 2.26-.056 3.384-.317.956-.22.956-.22 1.396-.193-2.354 1.384-6.306.936-8.834.497l-.23-.039c-3.186-.556-6.378-1.975-8.802-4.13l-.234-.201c-1.199-1.05-2.324-2.165-3.24-3.471l-.124-.176c-.301-.43-.588-.869-.869-1.313l-.114-.18c-1.63-2.59-2.766-6.166-2.665-9.25Z"/><path d="m15.386 8.238.199.1-.157.152c-.49.478-.977.957-1.464 1.437-.25.247-.5.493-.752.738-.29.283-.577.567-.865.852l-.273.264c-.49.49-.771.823-.857 1.52l-.229.03c-.287.074-.383.139-.565.366a363.5 363.5 0 0 1-.099.199h-.198l-.199.496H9.73l-.081.329c-.118.366-.118.366-.285.521l-.13.143c.022.312.022.312.099.595l-.298.1-.199-.1-.099.596h-.198l-.04.192-.053.248-.053.248c-.053.205-.053.205-.152.304-.02.149-.037.298-.05.447-.038.436-.038.436-.149.546-.198.86-.22 1.728-.223 2.605l-.003.303c.003.567.053 1.091.183 1.645.056.271.058.53.043.807l.298.099.037.335c.027.363.027.363.26.558l.13.567c.101.332.269.616.445.914.12.207.12.207.223.425.084.196.084.196.295.278v.298l.297-.1.031.23c.074.286.13.392.366.564h.298l.037.242.062.255.199.099-.1.198c-1.478-.792-2.405-2.852-2.88-4.395l-.066-.22-.06-.203c-.304-1.06-.407-2.077-.405-3.178v-.198c.004-1.09.098-2.084.434-3.12l.065-.206c.96-2.982 3.256-5.018 5.419-7.17l.572-.571 1.388-1.384ZM29.18 5.657c.259-.038.434-.04.658.104.218.18.405.336.533.591.165.1.33.2.496.298.252.2.498.405.744.611.24.194.24.194.52.284l.225.098c.13.36.13.36.198.694l.174.007c.351.146.46.462.62.787l.124.242.075.155h.198v.298l.298.1c.103.196.202.395.298.595l.198.1c.11.192.213.39.31.589l.163.325c.123.276.123.276.123.475.098.033.197.065.298.1.072.194.072.194.118.433l.047.238c.033.221.033.221.033.52h.199c.907 2.22 1.315 4.342 1.321 6.742l.001.212c.004 1.265.004 1.265-.23 1.879h-.1c.002-.086.002-.173.003-.262.046-4.32-.56-8.265-3.179-11.847l-.116-.16a16.412 16.412 0 0 0-3.896-3.79 3.986 3.986 0 0 1-.454-.418Z"/><path d="M37.418 10.521c.374.416.573.847.782 1.359l.104.252c.835 2.059 1.505 4.259 1.517 6.496l.001.278.002.582c.001.29.004.58.007.871.007 1.184-.08 2.304-.329 3.462l-.067.32c-.061.269-.128.536-.2.803l-.076.289c-.457 1.662-1.075 3.398-2.039 4.841l-.198.1c.06-.28.146-.511.28-.763 2.197-4.285 2.993-9.042 1.936-13.776-.094-.424-.153-.806-.132-1.243l-.297-.1c-.084-.22-.084-.22-.15-.502a10.413 10.413 0 0 0-.446-1.383l-.096-.252c-.14-.36-.274-.696-.475-1.026-.124-.211-.124-.211-.124-.608Zm-.695 11.613h.099c.04.62-.021 1.199-.137 1.805l-.037.2c-.086.43-.2.849-.322 1.27-.037.232-.071.463-.1.695l-.297.1c-.073.2-.073.2-.1.396h-.198l-.013.335c-.056.489-.286.831-.555 1.234-.152.219-.152.219-.127.516h-.198v.496l-.187.075c-.245.144-.305.26-.409.52h-.198l-.031.193-.069.205-.297.099-.031.28c-.07.318-.107.427-.366.613h-.199l-.019.174c-.111.309-.324.42-.577.62v.298l-.223.068c-.287.113-.287.113-.459.366-.39.483-.913.684-1.501.856.304-.31.615-.607.938-.897 3.066-2.772 5.061-6.39 5.613-10.517Zm-6.152-2.283a28.452 28.452 0 0 1 1.688 1.55l.265.255.25.246.227.222c.15.209.15.209.128.4-.085.229-.175.342-.346.513l-.174.175-.192.19-.2.202c-.22.22-.44.44-.662.659l-.458.458-.962.96c-.412.409-.822.82-1.233 1.23a703.026 703.026 0 0 1-2.037 2.034l-.19.19-.176.174-.152.151c-.143.118-.143.118-.44.217.142-.333.322-.555.595-.794h.198v-.198c.427-.473.427-.473.794-.596l.199-.397c.19-.184.19-.184.415-.372.37-.319.69-.65 1.005-1.023.272-.312.567-.598.863-.888l.496-.496.993-.992.252-.254c.154-.153.31-.304.47-.451l.208-.195.213-.196c.166-.18.166-.18.15-.387-.144-.288-.342-.472-.574-.695l-.259-.25-.262-.252-.496-.497-.179-.168a9.6 9.6 0 0 1-.417-.427v-.298Zm-19.852 8.933c.42.141.7.347 1.036.633.298.25.588.494.918.701l.23.155v.198l.206.03c.351.085.629.234.947.405.53.277 1.039.472 1.624.607.2.05.2.05.3.15.164.02.33.036.496.05.485.038.485.038.595.148.252.013.501.019.753.02l.232.002.49.002c.245 0 .491.004.737.007.867.006 1.626-.039 2.453-.329.143-.041.286-.083.43-.123l.389-.119.197-.057c.345-.106.636-.227.943-.418.324-.176.324-.176.566-.151l.155.074c-.872.466-1.717.845-2.68 1.092l-.31.09c-2.76.69-5.928.208-8.377-1.223a14.071 14.071 0 0 1-2.33-1.845v-.099Zm26.105 1.39.1.198c-1.07 1.706-2.406 3.389-3.971 4.665l-.307.261c-1.859 1.561-3.954 2.685-6.244 3.474l-.225.078c-.366.12-.6.173-.966.058l.162-.051.725-.234.256-.081.243-.08.225-.072c.195-.064.195-.064.275-.276.196-.073.395-.138.595-.198a11.031 11.031 0 0 0 2.978-1.49l.269-.18c1.217-.826 2.41-1.793 3.357-2.923a4.59 4.59 0 0 1 .444-.47h.198l.056-.198c.131-.275.245-.425.447-.645.417-.458.756-.96 1.103-1.473.18-.264.18-.264.28-.363ZM26.352 3.95c.433.208.887.36 1.34.516v.298l.2.1a3.887 3.887 0 0 1-.776-.262c-3.642-1.62-7.21-1.698-11.136-1.327 2.37-1.58 8.011-.496 10.372.675Z"/><path d="M7.742 18.958h.1l-.004.294a225.032 225.032 0 0 0-.012 1.564c-.016 1.168-.016 1.168.17 2.318.06.264.058.518.044.787l.297.099.038.335c.027.363.027.363.26.558l.13.567c.1.332.268.616.444.914.121.206.121.206.223.425.084.196.084.196.295.278v.297l.298-.099.03.23c.074.286.13.392.367.564h.298l.037.242.062.255.198.099-.099.198c-1.488-.797-2.415-2.87-2.886-4.425-.231-.785-.405-1.498-.402-2.321v-1.892l-.001-.218c.002-.369.025-.71.113-1.07ZM3.575 8.635c.11.37.11.37.007.61l-.138.21-.135.212-.131.16h-.199l-.198.595h-.199l-.037.21a7.48 7.48 0 0 1-.26.882h-.2l-.024.31c-.074.385-.074.385-.256.637-.305.439-.42.944-.563 1.454l-.09.32a25.087 25.087 0 0 0-.853 4.921H.101c-.079-3.667 1.321-7.582 3.474-10.52Zm8.436 10.224c.113.336.07.55 0 .893-.09 1.29-.099 2.562.397 3.772l.102.258c.267.597.65 1.091 1.068 1.59.114.14.218.286.32.434l-.1.298-.199-.099v-.198a8.438 8.438 0 0 0-.694.198c-.062-.186-.062-.186-.1-.397l.199-.198c-.128-.298-.128-.298-.298-.596l-.298-.1c-.086-.177-.086-.177-.155-.408l-.078-.257-.077-.271-.08-.26c-.451-1.542-.407-3.114-.007-4.66Zm24.715 3.275h.1c.04.62-.022 1.199-.137 1.805l-.038.2c-.086.43-.2.849-.322 1.27-.037.232-.07.463-.1.695l-.297.1c-.073.2-.073.2-.1.396h-.198l-.012.335c-.057.489-.287.831-.556 1.234-.152.219-.152.219-.127.516-.18.191-.386.335-.595.496 0-.313.034-.392.186-.652 1.117-1.982 1.894-4.135 2.196-6.395ZM17.07 6.55c.433.05.591.157.863.49.314.37.638.715.986 1.052l.247.24c.166.16.332.319.5.477l.231.226.212.2c.138.194.138.194.123.411-.084.18-.084.18-.283.28l.1-.398c-.328-.299-.623-.56-1.024-.756-.303-.155-.337-.232-.465-.534l-.211-.21-.186-.187v-.198l-.298-.1c-.183-.186-.334-.39-.496-.595-.49.199-.795.589-1.148.968-.23.211-.335.288-.639.322V8.04c.15-.144.15-.144.354-.31a9.247 9.247 0 0 0 1.135-1.18Zm19.359 8.636c.188.333.268.656.347 1.03l.071.33c.205 1.087.31 2.142.302 3.245a186.324 186.324 0 0 1 0 1.043v.367a3.108 3.108 0 0 1-.224.933h-.1l.004-.262c.036-2.806.036-2.806-.363-5.579-.065-.37-.05-.732-.037-1.107Zm2.974 7.643h.199c-.174 2.443-1.117 5.203-2.482 7.245l-.198.1c.06-.28.146-.51.28-.763 1.067-2.081 1.868-4.263 2.201-6.582ZM30.074 2.878c1.141.416 2.08 1.29 2.978 2.085l.157.138a21.97 21.97 0 0 1 2.026 2.045l-.099.199c-.63-.182-.63-.182-.805-.496a46.08 46.08 0 0 1-.176-.468c-.157-.323-.383-.495-.667-.704l-.138-.119V5.36l-.223-.077c-.29-.129-.46-.27-.69-.488-.504-.464-1.052-.914-1.668-1.222v-.198l-.236-.081c-.26-.118-.26-.118-.459-.416Zm-.296 17.172.1.297-.23.217c-.271.258-.271.258-.404.54-.222.325-.5.382-.856.534-.06.188-.06.188-.099.397a11.91 11.91 0 0 1-.595.496l-.168.18c-.13.118-.13.118-.428.118l-.062.279c-.137.316-.137.316-.434.509l-.298.105-.198-.1a452.677 452.677 0 0 1 1.846-1.868c.223-.227.449-.454.674-.68l.21-.216.2-.199.173-.175c.19-.15.333-.196.569-.236v-.198Z"/><path d="m12.903 16.08.297.198.1-.199.297.1-.116.138a4.753 4.753 0 0 0-.782 1.396c-.145.39-.32.767-.491 1.145h-.199c-.218 1.162-.22 2.297-.198 3.474h-.1c-.115-.461-.118-.91-.117-1.383v-.251c.016-1.735.016-1.735.316-2.336h.199v-.496l.198-.1c.073-.229.14-.46.199-.694h.198c.151-.488.151-.488.199-.993Zm13.896 19.553c-.371.238-.74.4-1.154.552-.345.126-.624.236-.93.44-.192.048-.192.048-.407.081l-.241.038-.252.036-.243.038a19.6 19.6 0 0 1-3.138.21h-.373l-.905-.006v-.099l.25-.012c2.259-.113 4.336-.325 6.472-1.124l.277-.103.246-.095c.2-.056.2-.056.398.044ZM13.4 1.29c-.262.145-.386.199-.694.199v.198l-.208.08c-.687.276-1.332.59-1.977.953-.464.258-.464.258-.793.258v.198l-.236.025-.26.074-.093.193c-.106.204-.106.204-.416.328l-.285.075v.198l-.298.1c-.136.128-.27.26-.397.397l-.298-.1c.935-.848 4.697-3.805 5.956-3.176Zm18.957 20.646.496.397c-.053.394-.239.568-.52.837l-.247.238-.225.215-.248.248-1.142 1.142c-.113-.371-.063-.541.1-.894v-.1l.285-.024.31-.074c.122-.194.122-.194.198-.397l.298-.1.1-.198h.198v-.596h.298l.099-.694Zm-18.462 3.97.138.11c1.016.782 2.076 1.402 3.336 1.676v.199l1.128.006.32.003c.648.002 1.282-.028 1.926-.108-.46.459-1.34.323-1.954.328l-.308.01a4.155 4.155 0 0 1-1.766-.344 2.997 2.997 0 0 0-.693-.174c-.683-.136-1.257-.617-1.73-1.11l-.217-.205c-.18-.193-.18-.193-.18-.391Z"/><path d="M30.57 19.851c.59.491 1.141 1.014 1.688 1.55l.265.255.25.246.227.222c.151.209.151.209.14.417-.145.31-.395.526-.64.76l-.157.152-.383.368-.1-.298.2-.18.253-.241.255-.238c.205-.21.205-.21.193-.431-.15-.281-.348-.47-.578-.69l-.259-.25-.262-.252-.496-.497-.179-.168a9.658 9.658 0 0 1-.417-.427v-.298ZM21.54.1c.754-.041 1.453.11 2.189.266l.387.08c.886.191 1.74.415 2.584.745-.366.122-.616.064-.992 0V.993l-.171.01-.232.008-.227.01c-.264-.028-.264-.028-.558-.168-.545-.25-1.145-.267-1.734-.326l-.364-.039c-.294-.031-.588-.062-.883-.091V.099Zm-2.385.099v.099l-.364.03a25.185 25.185 0 0 0-3.164.476 8.068 8.068 0 0 1-.884.139c-.356.014-.356.014-.55.248-.267.027-.526.009-.795 0 .901-.6 2.234-.738 3.282-.924l.286-.052c.732-.123 1.461-.204 2.19-.016ZM17.07 3.176v.1l-.16.034c-1.674.364-3.28.827-4.787 1.656l-.214.096-.198-.1.1-.198h.198l.099-.298a9.35 9.35 0 0 1 .794-.297l.234-.08a80.8 80.8 0 0 1 .942-.312l.422-.14c.197-.067.387-.146.58-.225.632-.241 1.32-.254 1.99-.236ZM8.336 25.112l.198.397h.199l.285.52.16.294c.09.166.177.334.257.505.081.188.081.188.29.269v.297l.298-.099.031.23c.074.286.13.392.366.564h.298l.037.242.062.255.199.099-.1.198c-1.208-.647-2.04-2.258-2.58-3.474v-.297Zm.299-8.933.1.397h-.2l-.04.192-.052.248-.053.248c-.053.205-.053.205-.152.304-.02.149-.037.298-.05.447-.038.436-.038.436-.149.546-.023.167-.04.334-.056.502l-.025.277-.018.213-.198-.099-.1 2.879h-.099c-.053-2.07-.012-3.91.794-5.856h.199l.099-.298ZM22.93 3.077c.573-.027 1.06.067 1.613.217l.252.068a8.62 8.62 0 0 1 1.558.588c.433.207.888.36 1.341.516v.298l.198.1a3.885 3.885 0 0 1-.774-.262c-1.337-.594-2.732-1.12-4.188-1.327v-.198Zm.198 23.623c-.51.44-.51.44-.893.496v.198c-1.107.593-2.32.612-3.549.62l-.258.004a1660.723 1660.723 0 0 0-.458-.002c-.233-.03-.395-.11-.599-.224l.177.004c1.674.039 3.088-.025 4.585-.836.731-.392.731-.392.995-.26Zm14.29-16.179c.374.416.573.847.782 1.359l.103.249c.342.839.643 1.692.902 2.56l.063.215c.102.367.148.614.036.977-.19-.507-.34-.94-.298-1.489l-.298-.1c-.083-.22-.083-.22-.149-.502a10.427 10.427 0 0 0-.446-1.383l-.097-.252c-.14-.36-.273-.696-.474-1.026-.124-.211-.124-.211-.124-.608ZM7.245 4.566l.199.099c-.29.37-.476.585-.894.794l-.13.223c-.191.312-.406.492-.685.722-.487.4-.487.4-.773.94h-.198v.2h-.199l-.074.167c-.146.269-.328.489-.521.726l-.1.198h-.198c.15-.48.423-.791.75-1.16a1302.866 1302.866 0 0 1 .871-.995c.603-.691 1.271-1.302 1.952-1.914ZM.994 14.194c.152.303.014.563-.074.874-.354 1.33-.527 2.717-.62 4.088H.1c-.016-.678.024-1.327.124-1.997l.04-.271c.318-2.078.318-2.078.73-2.694Zm28.983 19.354.198.1c-.342.475-.669.72-1.192.984-.212.103-.212.103-.396.306h-.198l-.1.198h-.396l-.1.298c-.344.115-.63.106-.992.1.366-.304.776-.5 1.197-.714a11.94 11.94 0 0 0 1.979-1.272Zm-27.1-15.484h.1c0 .075.002.15.004.227.028 1.33.069 2.651.237 3.973l.037.29c.056.412.123.809.233 1.21.08.337.082.44-.016.752l-.099-.595h-.198c-.256-1.342-.337-2.625-.317-3.99l.004-.547.015-1.32Zm9.133.795c.112.336.069.55 0 .893-.091 1.313-.06 2.531.397 3.772.07.23.134.462.198.694-.312-.156-.336-.424-.453-.744-.12-.401-.12-.401-.34-.744-.236-1.306-.132-2.597.198-3.871Zm-.793-16.477c-.056.33-.135.486-.397.695-.29.094-.29.094-.614.167l-.327.076-.25.055v.397l-.496-.1.1-.397.495-.099v-.198c.192-.1.385-.2.577-.298.107-.055.215-.11.325-.168.29-.13.29-.13.587-.13Zm24.017 4.963c.717.672 1.284 1.447 1.793 2.283l.122.198c.097.162.184.329.269.497l-.1.198a7.845 7.845 0 0 1-.694-.992l-.199-.242c-.198-.255-.198-.255-.34-.552-.174-.333-.378-.541-.652-.794l-.199-.199v-.397ZM26.7 1.29c.443.067.833.229 1.24.41l.21.092c.66.295 1.294.632 1.924.987l-.397.199-.161-.186c-.267-.239-.49-.317-.832-.41v-.198l-.196-.033c-.51-.093-.937-.2-1.392-.464V1.49l-.396-.2Z"/><path d="M10.719 28.784c.42.141.7.347 1.036.633.298.25.588.494.918.701l.23.155v.198l.241.038.255.062.099.198c-1.11-.162-2.017-1.117-2.78-1.886v-.099Zm15.287-5.062c0 .41-.148.572-.398.893l-.595.398c-.133.197-.266.396-.397.595a9.874 9.874 0 0 1-.695.596l-.198-.199 2.283-2.283ZM13.798 1.29l-.298.199-.1.198a8.516 8.516 0 0 1-.495.199l-.323.155c-.41.179-.823.213-1.266.242.368-.322.891-.596 1.39-.596V1.49c.737-.355.737-.355 1.092-.199Zm22.927 20.844h.1c.08 1.246-.143 2.502-.795 3.573-.111-.335-.086-.415.015-.74l.079-.265.086-.279c.227-.76.42-1.5.515-2.289Zm-8.338 15.484.199.1c-.373.328-.75.525-1.21.7l-.198.077c-1.455.556-1.455.556-1.967.413l.162-.051.725-.234.256-.081.243-.08.225-.072c.195-.064.195-.064.275-.276.197-.07.396-.136.595-.198.125-.055.249-.11.372-.168l.323-.13Zm-14.39-11.514c.167.199.167.199.298.397l-.596-.099c-.033.098-.065.197-.1.298h-.198l-.099.297c-.176.175-.176.175-.39.354-.209.176-.41.347-.603.54l-.297-.1c.136-.148.136-.148.297-.297h.199v-.199a8.54 8.54 0 0 1 .34-.346c.114-.11.225-.222.333-.337l.183-.191.171-.182c.164-.135.164-.135.462-.135Zm-1.888-8.238h.099a8.867 8.867 0 0 1-.254 1.62c-.215.938-.17 1.888-.143 2.846h-.1c-.115-.461-.118-.91-.117-1.383v-.251c.016-1.735.016-1.735.316-2.336h.199v-.496Zm26.203 9.33c.12.364.068.426-.095.762l-.131.274-.14.285-.135.282a9.188 9.188 0 0 1-.79 1.375c-.033-.099-.065-.197-.1-.298.09-.166.182-.332.28-.493.126-.215.224-.433.323-.66a7.12 7.12 0 0 1 .49-.931c.067-.165.134-.33.198-.497l.1-.099ZM2.978 9.826h.199a22.92 22.92 0 0 1-.025.528l-.014.296c-.06.268-.06.268-.245.452-.212.114-.212.114-.51.114.052-.274.11-.529.198-.794h.199l.198-.596Zm33.45 5.36c.2.348.274.694.354 1.086l.075.362.067.339.059.262c.042.242.05.466.047.712l-.003.237-.003.178h-.1l-.036-.24c-.085-.534-.174-1.037-.36-1.546-.125-.461-.11-.916-.1-1.39ZM19.651 9.132l.496.496c-.362.578-.71 1.077-1.39 1.29.112-.334.172-.365.447-.558.23-.186.334-.285.416-.572a5.51 5.51 0 0 0 .031-.656Zm16.974.397c.348.232.418.423.596.794l.198.198c.072.23.138.462.199.695h-.298v-.496h-.497v-.497h-.198V9.53ZM17.07 6.55l.497.1v.298l-.397-.199c-.292.25-.292.25-.439.59-.073.26-.18.35-.386.52l-.179.154a1.376 1.376 0 0 1-.584.225V8.04c.15-.144.15-.144.354-.31a9.247 9.247 0 0 0 1.135-1.18Zm-5.855 6.055c.133.265.067.414 0 .695l-.23.031c-.286.074-.382.139-.564.366l-.099.199h-.198l-.199.496-.198-.1c.143-.516.467-.78.856-1.122l.183-.165.45-.4ZM4.268 7.94c0 .323-.065.504-.199.794l-.198.199c-.04.23-.074.462-.1.695l-.595.099.192-.323c.146-.253.257-.476.304-.769h.199l.086-.236c.112-.26.112-.26.31-.459Zm2.779 23.425.347.285.196.16.152.15v.199l.297.099v.199l.397.198c-.297.1-.297.1-.502.006l-.192-.105h-.199l-.136-.341c-.119-.359-.119-.359-.36-.453v-.397Zm23.029-11.911c.192.075.192.075.397.199.075.21.075.21.1.397h-.795v.198l-.297.1c.03-.365.075-.475.353-.726l.242-.168Z"/><path d="M11.713 18.76h.099c.012.635.012.635-.047.914-.07.366-.088.73-.108 1.102l-.013.222-.03.54h-.1c-.162-1.923-.162-1.923.199-2.779Zm25.705-8.239c.4.438.602.917.825 1.458l.112.26c.199.476.199.476.254.664l-.1.199a8.758 8.758 0 0 1-.699-1.46c-.094-.244-.094-.244-.268-.513-.124-.211-.124-.211-.124-.608ZM3.078 28.983v.297h-.297v.298h.198c.298.559.298.559.298.893-.298-.099-.298-.099-.46-.303-.173-.371-.2-.679-.235-1.086.199-.1.199-.1.496-.1Zm9.43-17.668.198.1v.397c-.205.142-.205.142-.496.297-.235.161-.465.33-.695.496l-.199-.099 1.191-1.19ZM8.637 3.772v.297l-.187.02-.21.08-.094.248-.105.248c-.165.035-.33.068-.496.1a9.07 9.07 0 0 0-.397.496h-.199c.129-.287.248-.5.497-.695l.31-.1.285-.099.1-.298h.297v-.198l.199-.1Zm30.966 16.972h.199c.01.704.01 1.388-.1 2.085h-.198l.1-2.085Zm-36.921-1.29h.099l.008.176a503.344 503.344 0 0 0 .047 1.08c.028.61.076 1.215.144 1.821l-.1-.198h-.198c-.139-.593-.088-1.173-.056-1.775l.016-.322c.012-.26.026-.521.04-.782ZM17.37 6.849v.297h-.198v.298l-.242.075c-.271.096-.271.096-.335.335l-.018.186-.397-.1c.136-.198.136-.198.297-.397h.199l.08-.18c.28-.514.28-.514.615-.514Zm1.887 1.985c.192.056.192.056.397.198.092.355.14.59.006.937l-.105.155h-.199l-.198.397-.1-.198.1-.298h.198l.044-.23c.056-.266.056-.266.155-.564h-.199l-.099-.397ZM25.508.993h.198v.198l.304-.018c.446.02.69.122 1.086.316l-.298.198-.298-.099v-.1l-.992.001V.993ZM11.91 22.829c.241.24.315.459.44.775.126.316.246.6.426.889l.127.222-.1.198c-.181-.05-.181-.05-.397-.198a6.801 6.801 0 0 1-.273-.788l-.066-.22c-.089-.3-.157-.563-.157-.878Zm.3-5.956.596.1-.137.217c-.146.254-.258.5-.36.775h-.297l.099-.694h.198l-.099-.398ZM8.14 23.92l.198.1.1.695.198.198c.012.31.012.31 0 .596l-.199-.397H8.24a1.993 1.993 0 0 1-.106-.763l.003-.243.004-.185ZM29.18 5.658c.373-.055.49-.005.806.217.254.229.426.47.583.775a5.998 5.998 0 0 1-.918-.552l-.268-.186-.203-.155v-.1Zm-3.571 24.019.298.1-.521.39-.293.22c-.24.16-.395.241-.675.283.367-.39.737-.707 1.191-.993Z"/><path d="M12.605 24.218c.387.357.685.768.993 1.191l-.1.199-.198-.199h-.298a92.22 92.22 0 0 1-.142-.372l-.08-.21a5.683 5.683 0 0 1-.175-.609ZM17.172 6.65c.342.152.618.343.893.596v.297h-.198a15.82 15.82 0 0 1-.496-.595c-.248.12-.465.244-.695.397a1.92 1.92 0 0 1 .496-.695ZM18.759.298c-.387.258-.742.213-1.192.198v.199l-.794-.1c.582-.363 1.324-.309 1.986-.297Zm6.054 36.228c-.301.302-1.11.288-1.523.31-.154 0-.308-.005-.462-.012l.1-.199c.28-.05.553-.088.837-.117l.237-.03c.586-.065.586-.065.811.048Zm1.192-12.804c0 .41-.148.572-.397.893-.512.398-.512.398-.893.398l1.29-1.29ZM13.796 10.025l.1.298-.465.358c-.165.142-.165.142-.13.436l-.696.198c.378-.452.77-.878 1.191-1.29Zm.596 28.585.1.1c.15.023.301.04.453.056l.248.025.192.018.1.298c-.604.058-1.193-.166-1.688-.497.298-.099.298-.099.595 0Zm14.691-1.786c.267.017.529.061.794.099-.51.44-.51.44-.893.496a10.265 10.265 0 0 1 0-.496l.099-.1ZM15.78 31.067l.198.1v.396l.497.1v.099c-.442.039-.71-.084-1.092-.298.033-.098.065-.197.1-.298l.297-.1ZM30.67 3.375l.1.198.248.1c.248.099.248.099.347.297l-.297.1-.199-.1v-.297h-.198v.198c-.132-.033-.263-.065-.398-.1v-.198l.398-.198Zm6.452 25.806h.198c-.065.354-.214.613-.403.918l-.165.269-.126.203c-.11-.327-.08-.468 0-.794l.297-.1c.121-.248.121-.248.199-.496Zm-13.501-3.077.298.298c-.08.192-.08.192-.198.397l-.298.1V26.6l-.298-.099.496-.397Zm-.099.199.1.198.099-.198h-.199Zm12.708-1.291c.115.39.068.693 0 1.092l-.298.1c-.073.2-.073.2-.1.396-.099-.198-.099-.198 0-.521l.143-.384.073-.198.181-.485Zm-5.757-18.56c.321.143.558.323.819.558a324.774 324.774 0 0 1 .372.335c-.099.033-.197.065-.298.1-.2-.133-.2-.133-.41-.323l-.211-.188c-.173-.185-.173-.185-.272-.482Zm3.871 0c.638.41.638.41.893.694l-.1.199c-.48-.157-.48-.157-.694-.298-.093-.316-.093-.316-.1-.595ZM27.89 4.864c.475.057.797.238 1.192.496l.099.298c-.469-.162-.887-.408-1.29-.695v-.1ZM8.041 7.444l.199.1-.242.074c-.268.094-.268.094-.323.31l-.031.21c-.074.212-.074.212-.199.398-.26.124-.26.124-.496.198.1-.297.1-.297.354-.545.276-.226.276-.226.242-.546.235-.106.235-.106.496-.199Z"/><path d="M8.439 7.146h.198c-.147.343-.341.561-.608.82l-.218.212-.166.16c0-.298 0-.298.099-.596l.397-.198c.1-.132.2-.264.298-.398Zm.396 8.338.099.298h.397v.198l-.298.1-.198-.1-.1.298-.297.198c.056-.392.18-.661.397-.992Zm1.191-9.231c-.934.743-.934.743-1.39.993.105-.26.164-.377.41-.521l.186-.075v-.198c.436-.318.436-.318.794-.199Zm21.638 1.191c.335.056.335.056.695.199.143.36.143.36.198.694a57.967 57.967 0 0 1-.335-.279l-.188-.157c-.171-.16-.171-.16-.37-.457ZM15.086.794c-.056.02-.113.04-.17.062l-.221.08a9.296 9.296 0 0 1-.22.08c-.182.061-.182.061-.282.175-.265.014-.529.004-.795 0 .275-.183.478-.27.788-.366l.257-.082c.256-.05.4-.033.643.051ZM11.911 27.89c0 .38-.1.574-.297.894-.267.137-.267.137-.497.199.146-.498.425-.747.794-1.092Zm18.063-2.977.397.199-.497.496-.198-.1c.057-.284.085-.383.298-.595Zm-.594-4.566c0 .41-.142.578-.398.894-.322.136-.322.136-.595.198.318-.378.636-.749.992-1.092Zm6.847-7.147h.199c.026.43-.07.783-.199 1.192a2.603 2.603 0 0 1-.297-.893l.297.099v-.397ZM18.066 7.345l.342.285.192.16c.161.15.161.15.26.349l-.397.1c-.248-.292-.344-.515-.397-.894Zm6.352 23.425c-.142.085-.285.17-.428.253l-.241.144c-.225.098-.225.098-.522 0 .69-.544.69-.544 1.19-.398Zm13.796-4.368.298.1c-.153.468-.305.934-.496 1.389-.153-.305-.036-.53.043-.856l.087-.358.068-.275Zm-8.24 7.146.198.1c-.306.42-.306.42-.496.595-.28.037-.28.037-.496 0a5.64 5.64 0 0 1 .794-.695Zm-2.779-5.26c-.137.198-.137.198-.298.397h-.198v.198H26.5l.1-.595c.297-.1.297-.1.595 0Zm1.292-1.787.298.199-.497.496-.198-.1c.114-.244.203-.401.397-.595ZM25.21.794c.542.056.985.193 1.49.397-.367.122-.616.064-.993 0V.992l-.496-.099v-.1Zm5.954 31.861.1.198c-.34.38-.596.569-1.092.695.314-.323.635-.617.992-.893ZM12.902 16.08l.298.198.1-.199.297.1c-.36.484-.36.484-.695.595v-.695ZM13.3 3.474c.366.06.73.124 1.093.198v.1l-.795.198v-.298h-.297v-.198Z"/><path d="m13.795 1.29-.298.199-.1.198-.694-.099c.672-.448.672-.448 1.092-.298Zm-3.471 26.8h.397l.037.241.063.255.198.099-.1.198c-.185-.062-.185-.062-.396-.198-.124-.31-.124-.31-.199-.596Zm27.991-.894c.12.361.066.43-.093.763l-.115.243-.09.185h-.1c-.038-.442.081-.71.298-1.092l.1-.099Zm-29.182-.695c.298.199.298.199.397.496l.198.1-.099.297c-.248-.223-.248-.223-.496-.496v-.397Zm30.271-3.672h.198c-.01.163-.023.327-.037.49l-.02.276-.042.226-.198.1.099-1.092Zm-28.19-10.224c.133.265.067.414 0 .695l-.694.1.291-.342.164-.192a4.92 4.92 0 0 1 .24-.26Zm8.438-3.473.497.496-.199.298h-.298v-.794Zm8.138-4.566.795.099.099.397a10.143 10.143 0 0 1-.993-.298l.1-.198Zm1.985-1.688c.377.054.543.219.794.497l-.893-.1.099-.397Zm-.693-.397.496.199v.397h-.496l.056-.186c.067-.215.067-.215-.056-.41ZM11.91 29.578l.893.1-.099.396c-.362-.127-.513-.215-.794-.496ZM28.684 5.062h.595l.1.496h-.298c-.218-.248-.218-.248-.397-.496ZM13.895 38.213l-.1.199h-.198l-.1.198-.595-.198c.338-.208.601-.216.993-.199Zm16.378-1.985h.695c-.234.251-.363.386-.695.496v-.496Zm-20.248-2.283.496.298c-.128.137-.26.269-.397.397h-.198l.099-.695Zm25.808-3.077.099.199c.098.033.197.065.298.1l-.496.495a20.116 20.116 0 0 1 0-.694l.099-.1ZM11.91 28.983l-.1.496-.595-.397c.36-.211.36-.211.695-.1Z"/><path d="m11.118 13.2-.198.398h-.298c-.17.192-.17.192-.298.397.034-.308.059-.457.286-.676.21-.118.21-.118.508-.118Zm6.448-6.054.298.199v.199l.397.099-.1.298c-.464-.36-.464-.36-.595-.497v-.298ZM37.817 28.09h.1c-.087.67-.087.67-.199.893h-.199c.05-.371.087-.577.298-.894Zm-33.45-.894c.353.388.478.693.596 1.191h-.199v-.496l-.298-.1-.099-.595Zm12.309-14.293.298.1-.794.794c0-.436.211-.573.496-.894ZM2.979 9.826l.199.1c-.13.34-.13.34-.298.694l-.298.1v-.298h.199l.198-.596Zm23.126 28.387.894.1c-.26.173-.401.237-.695.297-.066-.13-.131-.262-.198-.397Zm.99-2.68v.298c-.269.135-.497.106-.794.1.459-.398.459-.398.794-.398Zm5.089-3.343.174.068-.223.075c-.293.133-.457.283-.67.52.037-.27.084-.38.279-.576.217-.118.217-.118.44-.087Zm-21.465-3.406c.484.135.644.37.893.794-.424-.157-.622-.447-.893-.794Z"/><path d="M4.367 26.8c.263.31.382.603.496.992-.192-.106-.192-.106-.397-.298-.074-.366-.074-.366-.099-.695Zm.495-14.89.1.2c-.078.192-.078.192-.193.409l-.115.217-.09.167h-.1l.1-.695h.199l.099-.297Zm28.884-2.084.298.1c.118.304.118.304.198.595-.192-.068-.192-.068-.397-.198-.074-.26-.074-.26-.099-.497ZM14.59 9.23l.099.298-.596.497-.198-.1.694-.694Zm1.29-.893c-.15.418-.425.57-.794.794.15-.35.373-.794.794-.794Zm-.694 5.956.199.099-.298.496-.298-.099c.174-.385.174-.385.397-.496Zm19.951-2.283.297.1.1.694c-.288-.238-.348-.428-.397-.794Zm-5.36-5.955c.23.018.23.018.497.099.18.254.18.254.297.496-.334-.143-.547-.33-.794-.595ZM7.446 4.566l.198.099c-.16.203-.326.401-.496.595h-.199c.129-.286.264-.483.497-.694ZM15.383.794v.298l-.992-.1V.893c.769-.1.769-.1.992-.1Z"/></g><defs><clipPath id="a"><path fill="#fff" d="M0 0h39.901v40H0z"/></clipPath></defs></svg>